<?xml version="1.0" encoding="UTF-8"?>
<svg id="Vrstva_1" xmlns="http://www.w3.org/2000/svg" version="1.1" viewBox="180 110 1140 680">
  <!-- Generator: Adobe Illustrator 30.7.0, SVG Export Plug-In . SVG Version: 2.1.4 Build 114)  -->
  <defs>
    <style>
      .st0 {
        fill: #ff8500;
      }

      .st1 {
        fill: #750000;
      }
    </style>
  </defs>
  <g>
    <path class="st1" d="M811.15,182.15h42.59l35.35,96.26,24.92-28.11c-11.93,28.96-25.56,56.87-40.68,83.91l-62.18-152.05ZM896.54,182.15h42.59l40.04,109.04-20.44,43.02-62.19-152.05ZM996.63,182.15h34.5l-46.64,97.53,12.13-97.53Z"/>
    <path class="st1" d="M1015.83,326.11l51.75-100.09-17.25,100.09h-34.5ZM1121.46,326.11l-18.32-42.17-35.35-3.19,29.17-10.86-37.9-87.74h41.1l62.4,143.96h-41.1Z"/>
    <path class="st1" d="M1190.69,326.11v-143.96h38.97v143.96h-38.97ZM1239.24,326.11l54.73-43.66-12.78,43.66h-41.95Z"/>
    <path class="st1" d="M826.47,523.03v-143.96h38.98v143.96h-38.98ZM927.21,451.9c0-31.73-17.46-63.67-52.39-72.41,3.63-.42,7.24-.64,10.86-.64,45.36,0,83.27,27.69,83.27,69s-38.76,75.39-84.34,75.39c-3.83,0-6.81-.22-9.8-.43,34.93-7.66,52.39-39.18,52.39-70.92Z"/>
    <path class="st1" d="M1001.75,523.03v-143.96h38.97v143.96h-38.97ZM1050.3,379.07h48.55l4.9,36.84-53.45-36.84ZM1050.3,449.56l42.16-16.19-3.41,31.95-38.76-15.76ZM1050.3,523.03l58.99-41.74-12.78,41.74h-46.21Z"/>
    <path class="st1" d="M1141.05,480.01c14.48,14.27,31.52,30.88,48.13,45.99-11.71,0-37.05-3.41-51.54-8.3l3.41-37.69ZM1213.68,499.6c0-31.73-72.41-36.84-72.41-79.44,0-21.93,19.6-37.27,37.27-41.95-5.75,5.11-9.16,12.14-9.16,19.59,0,36.63,73.47,38.33,73.47,83.27,0,20.23-15.34,38.98-44.09,44.09,8.74-5.33,14.91-16.18,14.91-25.56ZM1231.57,418.68c-13.21-14.27-28.75-29.18-43.66-41.96,3.19-.42,8.09-.64,10.44-.64,10.22,0,24.28,1.92,36.63,5.75l-3.41,36.84Z"/>
    <path class="st1" d="M826.47,719.94v-143.96h38.98v143.96h-38.98ZM918.05,719.94l-45.15-75.6c29.39-1.06,46,11.93,58.78,30.03l32.16,45.57h-45.79ZM887.38,637.52l32.59-61.54h42.59l-75.18,61.54Z"/>
    <path class="st1" d="M978.12,719.94l51.75-100.09-17.24,100.09h-34.5ZM1083.75,719.94l-18.31-42.17-35.35-3.19,29.17-10.86-37.91-87.74h41.1l62.4,143.96h-41.1Z"/>
  </g>
  <g>
    <path class="st0" d="M325.58,661.65l4.44,2.26c-2.37.38-4.67.06-7.12-.84-9.75-3.56-17.71-9.86-24.17-18.21-2.43-3.14-4.09-6.96-7.94-8.46l12.55,19.33,4.95,5.92c1.6,1.92,4.99,2.96,6.15,5.24l4.7,2.83c-6.18-.59-9.92-4.79-14.8-7.63-5.97-3.47-10.02-9.18-13.26-15.29-1.95-3.68-4.57-6.35-8.13-8.6-10.04-6.34-18.04-14.39-24.13-24.09,1.12,3.18,2.4,6.05,4.53,8.12l16.6,16.12c-18.27-9.75-28.9-27.73-31.85-47.65-1.04-7.01-1.94-13.41-.84-20.45l1.59-10.24,4.2-13.39c-4.3-3.6-7.95-8.24-11.05-13.03l-9.67-14.92c-7.17-12.7-13.05-25.29-17.71-39.14-13.73-40.8-11.23-85.45,9.1-123.97.79-.14,1.44.02,1.52.35l-4.57,10.76c-6.23,14.66-9.23,30.41-10.87,46.43-.21,2.04.09,4.66.35,6.59,2.1-34.98,10.72-63.04,36.59-88.61-.13,3.65-2.84,5.5-4.84,8.2l10.71-8.54,2.24-1.24c.11,2.15-1.86,3.05-3.48,3.82-10.21,13.78-19.06,28.94-24.14,44.92,6.14-12.17,11.34-23.87,20.69-32.21.02,2.21.4,2.39,1.28,1.96,1.47-1.71,1.55-.6.89.48-6.33,10.25-12.13,20.19-16.1,31.36l-3.16,11.12c.32,1.14.65,1.28.63-.04l3.96-9.35c-2.28,12.11-5.74,22.56-6.44,34.46-1.45,24.45,3.05,47.87,13.84,69.55l8.24,16.56c5.04,10.14,11.09,19.27,19.45,27.06l3.79,3.54,9.82,9.79c1.34,1.34,2.83,2.67,2.43,4.66-.42,2.08-2.34,3.29-4.7,2.04-.57-.3-2.21-.54-2.69-.13-.58.49-.54,2.25-.51,3.14l-3.82,5.28-1.73.3-1.67,6.26c-2.15,13.67-.6,27.72,4.4,40.58,1.9,4.9,5.52,9.14,9.5,12.22l9.9,7.66,1.15,1.06c.3.27-1.01.74-1.43.47l-11.3-7.32-7.69-6.9c5.05,8.65,19.65,15.48,22.43,19.55l10.73,15.7c2.91,4.25,8.54,6.21,12.36,9.3.93.75,1.51,1.25,2.36,1.53l5.15,1.69c.36.12,1.3,1.12.99,1.21l-1.56.44c-.18.05-.97-.01-1.65-.05l-1.18.42Z"/>
    <path class="st0" d="M690.62,382.21c-1.83,1.09-3.83,1.48-6.21,1.84l-7.77,1.17-21.27.25,8.05,1.87-5.21.51-.43.34,9.46.8c-5.53,2.07-10.31.44-15.46-.2l-13.63-1.69-12.35-2.82-11.7-3.07,10.63,3.87,17.92,4.61c-3.35.75-6.42-.56-9.67-1.04-14.03-2.08-27.01-5.84-40.1-11.55-17.58-7.67-34.25-16.29-50.19-26.87-7.12-4.72-13.27-9.77-19.46-15.59-5.67-5.34-10.25-11.7-14.5-18.25-2.87-4.42-4.36-11.98-3.32-13.77.43-.74,2.63-.68,3.2.07l2.86,3.69-2.15-6.48c-.16-.47,1.39-1.99,1.79-1.66l1.7,1.39.79-2.41c.15-.46,1.54-.07,1.84-.07l1.73-1.75c.45-.46,2.12.98,2.5,1.52l5.9,8.38,14.99,12.08c-4.16-5.94-9.57-10.34-11.64-18.31l4.52,4.06-2.05-4.13c2.11-5.49-2.78-7.93.93-11.98l3.82,5.18c-.71-2-2.21-5.58-1.04-6.59,1.59-1.37,3.82-2.13,5.93-2.85l7.02,9.55,7.54,7.16,11.54,10.23c10.03,8.89,21.7,14.92,33.72,20.81l27.36,13.41c9.19,4.5,18.71,6.93,28.93,9.22-.1,1-1.7,1.92-2.62,1.74l-3.91-.75-23.44-6.19c12.55,5.23,25.83,8.38,39.59,10.47,5.18,2.34,10.83,3.22,16.55,2.38,2.05.16,3.93.33,5.61,1.03l-12.41.8,17.34,1.51c-3.21,1.41-5.68,1.47-8.67,1.85-7.18.92-14.14.69-21.67.07l3.41,1.28-5.1.26-.43.57,12.76,1.34-1.96,1.65c1.95.18,3.1.34,4.73,1.12-7.14.93-12.86.16-20.08-.58l3.46,1.43c-1.54.54-4.68,1.24-6.79.77l-31.89-7.15c9.81,3.77,20.22,6.51,31.11,8.48l23.26,4.2,7.22.11,9.68.47c-2.65.81-5.05.75-7.73.9l-12.97.73,18.42.6Z"/>
    <path class="st0" d="M496.87,256.1c4.2,2.64,11.73,1.43,16.1,6.87l-15.47.63c3.76,6.98,10.03,8.59,17.55,9.82-4.85,5.64-12.45,5.89-18.69,2.11-8.03-4.85-12.2-14.77-10.05-24.45,1.88-8.46,9.2-16.35,18.7-17.69,5.3-.75,10.89.81,13.78,5.38-6.79-.32-13.1-.45-17,4.85,5.66,1.82,11.09,2.34,15.2,7.46l-16.31-.25c-.93-.01-2.81.89-3.57,1.3-.77.41-1.01,3.5-.26,3.97Z"/>
    <path class="st0" d="M457.42,256.19l9.8,1.21c2.92.36,4.92,1.05,7.29,3.25l-15.96,2.53c4.21,6.04,10.85,8.03,18.82,8.08-2.24,4.46-7.56,5.75-12.29,5.52-12.89-.61-22.66-16.06-18.38-29.63,1.9-6.03,6.63-11.85,13.54-14.18,5.67-1.91,11.74-1.59,16.24,2.7l-8.98,1.85c-2.85.59-5.88,3.28-7.44,5.49,5.89,1.55,11.38.68,16.02,5.61l-17,1.46c-1.03.09-2.58,1.55-3.05,2.34-.46.79.32,3.64,1.39,3.77Z"/>
    <path class="st0" d="M457.02,365.73l10.31-13.04c-2.47,5-5.71,9.34-10.31,13.04Z"/>
    <path class="st0" d="M716.74,317.19c1.59-5.91,1.99-11.89.33-17.7l-5.38-18.78c2.73,4.88,4.74,10.12,6.21,15.64l1.58,6.59-.41-12.69c-.26-7.99-3.47-15.06-6.95-22.19-11.79-24.16-26.28-35.87-50.55-46.26-5.75-2.46-11.18-4.82-16.26-8.39-9.75-24-26.65-49.13-50.29-60.28l-18.72-8.83-17.66-5.01-18.33-4.61-3.96.32-15.32.74c9.19.79,17.75-.42,26.42,3.78.46.59.61,1.14-.71.48l-34.35-.55c-5.43-.09-10.68,1.34-15.78,2.45l-10.63,2.31,2.57,1.09s-.08.04-.12.06l-7.5,2.87,7.16.69c1.12-.45,1.09-.11.14.6l-12.64,5.43c-1.42,0-1.03.76.17,1.22l5.53-.89c8.28-1.33,15.91-3.61,24.65-3.96-.9,1.45-2,1.45-3.74,1.51-9.28.31-21.89,4.22-27.55,10.67l.16,4.89,5.72-1.93,5.7-.99c.3-.05,1-.1,1.05-.06.04.03,0,.69-.03,1.48l16.76-3.19c.54-.1.84.79.46,1.34-6.95.98-12.9,2.31-17.51,7.02l-5.76,4.05c-.25.18-1.16.92-.94,1.09l1.16.92c4.61-1.61,9.37-2.96,14.04-3.25-1.93,1.19-2.06,1.92-.84,2.15,1.91-.13,1.53.17.78.67l-6.75,6.41,5.19-.82c-.02.89-.13,1.78.2,1.66l1.94-.71c2.29-.83,4.74-.45,7.1-.47,6.27-.04,12.27-.53,18.22.58l-10.82.94,19.66,1.58c1.21.38,1.25.72-.06.81-13.11-.96-25.98-.79-38.29,4.72.05.37.18,1.46.16,1.33,1.53-.58,2.47-1.03,2.55-.62l.24,1.23,6.44-1.45-4.37,2.75,3.54.43c.61-.17.57-.16-.67.19l-13.38,6.64c-.65.32-1.99,1.85-2.5,2.4l8.17-1.37c-1.73.87-2.91,1.45-3.68,2.99,10.22-3.85,19.84-5.03,30.45-4.22,4.15.32,8.15.4,11.92,1.45l-21.78-.56-3.96,2.26c17.04-.71,33.58,2.66,48.12,11.19,1.49.87,3.27,2.87,5.09,3.57,6.83,2.64,12.62,6.16,17.92,11.18l12.67,12.03c1.58,1.5,3.68,1.81,4.31,4.38.91,3.68,3.26,7.18,5.89,8.83l4.08-7.19c.05,2.3,1.71,2.51,1.7.8.24-2.56.93-4.36,2.2-6.33l-1.36-4.8c2.93-1.34,1.81-3.49,1.44-5.67-.74-4.37-2.05-7.82-4.87-11.55-8.23-10.89-18.94-20.07-29.96-27.92l1.26-1.24c.14-.14-1.96-.49-4.93-3.08l-4.54-3.95,11.36,5.47-1.85-3.06c-3.57-5.91-13.36-13.64-19.7-16.77l-10.91-5.38c9.33.7,17.58,3.56,26.33,6.92,20.79,8,37.25,22.9,47.39,42.14l-5.21-5.15c-2.94-2.91-4.57-6.61-8.36-8.9,3.08,5.98,6.52,11.15,10.93,15.59.95.96,2.49,2.14,3.13,3.54l2.84,6.22c.92,2.01,3.9,4.08,5.61,5.76,2.84,2.81,5.34,4.72,9.34,7.4l-5.78-.44,8.72,5.59,1.85-3.43,15.89,8.17c9.63,4.95,18.53,11.13,25.86,19.07,9.66,10.45,12.82,23.55,13.98,37.03l1.12-5.38c1.9,4.32.84,9.75-1.14,10.11l-3.26.59c-.59,2.07-3.09,6.36-6.1,6.18-12.15-.7-23.57-4.87-34.12-10.89l-19.05-10.86-19.88-12.13c-13.33-8.13-25.93-17.28-40.09-23.26-9.02-3.81-17.28-8.43-27.75-9.27l19,10.1,7.15,4.33-11.93-4.61,4.01,3.55-11.33-4.15-22.7-5.03-.58,1.55c5.72,1.43,9.71,2.72,14.47,4.99l7.83,3.73-15.71-4.5c1.47,2.58,3.98,2.16,6.32,3.08,11.91,4.65,22.78,10.37,33.5,17.4l43.63,28.64-.65.76-25.34-16.49-9.4-5.22,2.83,3.31-9.58-4.78,21.99,15.35,11.13,7.85,29.82,19.6c11.49,6.66,23.36,11.34,36.42,13.92,10.29,2.03,20.29-.83,28.32-7.95,11.93,14.02,19,30.19,22.36,47.94,4.47,23.68,2.4,44.48-5.25,66.76,3.07-20.38,2.03-40.72-4.98-59.94l-.07,5.23c-2.24-7.87-5.24-16.03-11.63-22.52-1.39,1.63-.08,4.1,1.7,5.79.8.76.22,3.42.41,4.41l2.25,11.47c.62,1.61-.2-.02-.64-.84l-1.47-3.71-3.97-7.76c-.64-1.24-2.66-2.89-3.55-3.45l1.9,10.11-.9-1.7-1.34-2.56-.91-1.59c-.19-.34-.91,1.32-.77,1.77l3.84,12.31c2.18,6.98,2.29,14.52,3.27,21.58l.23,1.63c.04.26.14.47-.11.52-.29.06-1.05-.03-1.02-.28l.22-2.17-2.8-15.98c-.69-.66-1.22-.7-1.51-.29l.2,5.35c2.68,19.26-1.06,46.95-11.26,63.79l-.54.9c-4.3,7.1-8.2,13.87-14.49,20.4l-.54-4.01c.15-22.36-7.99-43.8-23.11-60.2l-1.16-.67c-.22-.13-.13-1.05.13-1.01l1.73.31,22.28-6.11,6.36-3.71c-2.89-1.31-3.94-.51-6.15,1.21l-.25-1.56c-.05-.32-1.15-.19-1.62-.06l-8.85,2.54-1.87.3c-.25.04-.13-.69-.03-1.03l2.9-.94,1.53-.5c.27-.09.25-.47-.03-.47l-1.84-.05c-.18,0-1.09-.27-1.5-.39,4.79-.73,8.66-2.06,12.89-4.89l5.52-3.69c.23-.16.52-1.43.26-1.32l-1.43.61c-3.73,1.59-7.16,2.9-11.01,2.92l4.02-2.92-24.01,2.86c-15.98.89-31.23-.8-46.49-5.81l.6-.75c9.55,3.1,18.01,4.59,27.66,5.01.71.03,2.25.15,2.82.03l3.32-.71c.42-.09,2.09.42,1.98,0l-.46-1.73c-.07-.27-1.27.25-1.56.21l-20.21-3.02c-26.79-7.15-59.5-23.1-80.43-40.83-9.39-7.96-17.63-16.35-24.38-26.58l-14.71-22.29-2.93,1.33c.03.88-.8,3.37-1.8,3.49-.31.04-1.31-.73-1.49-.98-.18-.25-.86.53-1.03.82l-.5,4.77c.01.4,0,.14-.04-1.04l-2.74-3,.7-2.83,2.43-16.42.24-1.79c.04-.3-.78-.21-.92.06l-.68,1.33-2.88,5.68c-2.61,6.72-5.08,12.87-8.82,18.92l6.01-18.73c1.29-4.02,2.04-7.96.49-12.32l-1.72,3.68c-.02,1.26-.22,1.06-.39,0l.65-3.37.21-1.07-1.51-.95-4.06,11.74c-.09.25-.32.4-.39.18l-.45-1.53-.68-1.14-3.51,4.35c-5.32,6.59-8.27,14.69-12.82,22.05-8.35,13.51-17.87,25.77-29.85,36.28-11,9.65-22.61,17.9-35.46,24.83-13.7,7.38-27.25,13.47-41.9,18.52l-29.66,10.23c-10.22,3.52-18.71,9.4-26.78,16.21-7.33,6.17-13,12.73-17.55,21.16-4.99,9.22-8.35,18.98-8.14,29.79l1.46,4.79c-.04.9.59,2.28.95.76-1.48-13.43,5.48-29.8,13.57-39.22l4.93-5.73c1.19-.73,1.27-.19.56.71l-8.57,11.38c-4.77,6.33-7.32,14.09-7.5,22.49l2.74-8.75c.57-1.74.73-2.2.17-.21l-.98,16.73,1.76,4.11c.08.19.1,1.78.06,1.97-.04.19.43-.81.54-.97l.48-.65-.39,4.56c-.01.13.39.82.51,1.07l.47.97.54,1.1c.11.22.99,1.2,1.01.96.02-.3.14-.83.05-1.06l-.51-1.26c-.89-7.71.8-15.11,2.89-22.62,2.78-7.16,7.18-13.13,12.35-18.78l.74-.85,1.13-1.3c.15-.17.42.85.26,1.01l-.98,1-5.72,7.6.86,1.03,5.63-6.84-2.94,32.54c-.02,18.42,1.1,36.15,3.29,54.35l-.08,6.85c4.79,36.46,16.44,73.14,34.29,105.27,11.69,21.05,26.28,39.38,42.72,56.84,9.23,9.8,19.15,18.12,29.88,26.16l9.08,5.54c32.7,19.96,73.66,25.95,109.21,10.87l18.41-9.29,13.85-9.32,9.77-8.51c14.83-12.93,28.52-26.73,39.86-42.91l3.64-7.11,5.3-8.73,3.36-5.54c.78-1.29,2.84-3.07,4.45-2.83,1.2.17,2.89,1.03,3.91,1.57,1.82-.52,3.26-.32,5.93.1l-1.61.63c-1.5-.09-1.4.51.05.91l9.44-.82c.87.1,3.1.63,3.9.53l7.12-.85c-1.28,1.31-1.12,1.44-.29,1.83l8.83-3.53c9.36-4.69,14.9-13.21,19.27-22.85-2.39,10.63-10.31,20.47-20.45,25.87l-12.94,5.43-1.56.95c20.93-1.36,33.96-17.36,40.77-38.25l3-9.2c13.77-12.36,22.06-30.38,15.15-48.28,19.05-15.53,29.8-37.46,29.09-62.4l-1.3-7.23c-.31-.86-.74-2.08-.48-1.33-.34,1.17-.53,1.76-.51,2.02l.18,2.32c-.1.14-.49.66-.46.61l-1.42-4.33-.64,1.83-1.62,5.54c-.24-8.01-.97-15.05-2.83-22.46,18.22-28.98,27.32-58.1,25.78-92.63l-1.5-13.39.65-.43,1.47,11.64.4,23.72.22,6.6c.08.11.68.86.68.88,0,.02.42-.98.57-1.34l1.65-21.88c-.02-32.75-11.66-63.92-34.62-87.22ZM467.33,352.69c-2.47,5-5.71,9.34-10.31,13.04l10.31-13.04ZM529.1,750.51l12.21-6.38h0l-12.21,6.38h0ZM534.07,749.01c-.7.3-1.41.56-2.13.79.72-.23,1.43-.48,2.13-.79,1.07-.46,2.12-1.01,3.12-1.63.78-.48,1.52-1.02,2.24-1.59-.71.57-1.46,1.11-2.24,1.59-1,.62-2.05,1.17-3.12,1.63ZM658.63,553.78c.06.25.69,1.25.84,1.32l10.91-11c-5.54,9.39-12.84,16.71-21.76,22.87l1.7,1.21c.14.1.69.03.56.19l-1.23,1.54,8.02-2.24-.81.94-1.34,1.56,1.02.82,7.59-4.6-.21,2.36c-.03.36.44.55,1.34,1.05l.04.73c.02.41.03.99.27.99l3.18-.07c.1,0,.25.66.46,1.44,0,0-.1.03-1.26.34l-3.58,2.22c-.77.47.04,2.33.37,3.19l3.41,3.29,8.69-3.52c3.43,3.25,4.1,7.85,3.82,12.49-.49,8.18-4.67,15.37-11.34,19.81-4.8,3.19-5.49,8.04-7.29,12.91l-3.97,10.76c-3.39,9.18-9.73,14.71-19.67,17.47l5.67.5-4.83,1.38-9.75,2.67,9.83,1.13c-6.41,1.93-12.22,1.7-18.63.53l13.6-30.28c-2,2.47-4.64,5.11-5.94,7.36l-15.53,26.85c-7.72,13.36-16.89,25.25-27.37,36.67l-20.49,20.16,17.26-18.3c10.02-10.62,18.86-21.71,26.1-34.33l8.24-14.35,1.98-5.97,8.94-20,2.15-5.95,2.36-10.05c.9-3.85,4.01-6.8,2.39-11.44l-7.23,18.35-6.83,14.99c-5.14,11.27-11.27,21.52-18.47,31.77l-22.58,28.15-20.68,20.8-9.71,7.83c-18.73,15.1-45.78,27.6-69.38,25.95,14.57-.72,27.8-3.15,40.85-9.41,11.5-5.52,22.33-12.01,31.61-20.75,8.53-8.04,17.65-14.99,24.63-24.61-13.73,13.05-26.37,25.97-42.5,35.72-12.87,7.78-26.2,13.59-41.24,15.46-32.42,4.03-68.26-10.35-91.83-32.84-31.32-29.88-52.59-59.58-68.11-100.34-12.68-33.31-17.59-73.98-20.04-109.65l-.81-11.75c-.13-1.9-1.07-4.62-1.72-6.72l-.4,6.83-.57-.47-1.12-15.22c-1.11,2.04-1.05,3.3-1.11,6.02.11.28-1.92.77-1.14.24l-.22-8.13-1.01,8.04-.62-.41.92-21.07-.68-.49-1.74,14.15-.64-.6,2.19-19.59c3.3-4.38,8.96-6.85,14.02-8.87l6.78-2.7c.25-.1,1.28-.29,1.2-.05l-.93,2.61,3.66-.27c.97-.49,1.9-.64.58.28l-1.81,3.82,4.39.89,4.69-2.42c.86-.14,2.42-.34.4,1.15,0,0,.63.67,1.24,1.31l12.86-5.83c10.83-4.91,22.82-6.75,34.71-7.19,16.22-.61,31.25,5.84,42.5,17l1.52-1.13c.5-.37,5.28,2.2,7.55,6.02,1.91,3.22,2.72,7.11,3.76,10.75l5.36,18.8,3.33,7.35.88,9.46-.11,24.46,1.76-9.91.33,8.16.95.53,2.17-10,.25,8.13.29,14.7,1.67-4.75c-.07-1.53-.06-1.44.02.07l1.54,3.24,1.44-9.59,1.21-8.14c2.16-20.58.54-41.47-6.74-60.54-.48-.15-1.65-.68-1.77-.98l-2.55-6.19c-.61-1.48-2.5-1.81-4.01-.14l-2-1.71c-.58-.5-.17-1.78.42-3.38l1.21.18,1.36.88,1.22.79c.25.16.14-1.34-.04-1.63l-5.19-8.59,3.79,2.87,1.22.18c-10.76-16.46-31.7-24.71-50.8-27.09l15.97-9.15c24.91-14.27,52.28-40.61,63.89-67.01l.56-1.27c.1-.23.75-.37.83-.13l.47,1.27,4.18,8.28c3.32,6.59,7.75,12.99,12.97,18.16l6.62,6.56,4.99,5.46c.14.94.65,2.04,1.37,2.67,10.84,9.48,21.92,17.65,34.6,24.43l7.85,4.2c.47.25,1.15,1.84,1.62,1.82l2.58-.09-.14,1.18c-6.18.85-11.68,1.47-16.83,4.37l-19.03,10.71c2.2-3.91,7.43-4.21,8.88-8.19-18.69,10.24-31.43,29.97-32.04,51.23l.31,13.27c.21,8.85,3.86,17.12,7.97,24.92,1.09-1.94.29-3.38-.04-6.01l6.57,11.08,6.82,9.74c.32-.06,1.44-.4,1.64-.1l1.26,1.91c.24.37,1.06,1.15,1.45,1.42l7.97,5.59,1.94-2.7-9.73-7.37.66-.61,12.03,7.51c5.43,3.39,11.35,4.76,18.11,6.24l-.57,1.57c-.16.44-1.73.19-2.2.08l-1.29-.31-9.16-2.58-.2,2.47c3.4,1.79,7.64,2.51,11.56,3.32,12.06,2.49,21.78.65,33.35-3.41,17.51-6.16,30.89-19.67,35.69-38l-.38-8.15-.83.21c-1.64,5.51-3.07,9.83-5.93,14.24,1.5-5.88,4.11-10.64,4.12-16.1-2,2.46-3.18,6.62-3.58,8.89-.04.24-1.06,1.53-1.03,1.28l.14-1.33c.12-1.18,1.35-3.85,1.32-5.1l-.24-11.69-4.92-6.36-.83,6.26-.95,6.81-.77-4.12-4.43,12.03-.48-.52.78-3.09c.24-1.16-.37-2.63-.8-.48-3.89,12.02-12.57,21.69-23.98,26.4-9.57,3.95-24.35,4.23-32.62-1.89l11.24,3.07c7.99,2.18,16.59-1.16,23.62-5.42.77-1.24.61-1.53-.21-1.26-12.98,6.15-26.08,6.81-37.63-.99-13.68-9.23-23.01-20.59-22.21-37.59-1.1-1.98-.87-3.96.42-6.07,1.5-4.78,2.78-9.68,5.88-13.72,9.2-12.01,23.19-18.8,38.55-19.04.35-.14,1.09-.92,1.48-1.5-2.13-.37-3.03-.88-5.02-2.33l-.79-1.41,8.7.88c2.08.21,4.31.33,4.58,2.72l10.96,5.78c7.39,3.9,15.88,11.3,20.6,17.89l2.58-1.13-3.66-7c-.17-.33-.41-1.33-.58-2.17l7,9.33c4.21,5.61,5.75,11.53,7,18.98,1.81-2.55,1.67-5.03,1.7-8.06l1.88,3.5c1.78-2.77,1.88-4.62,1.21-7.17-2.6-10.83-7.87-20.29-15.25-28.56-.14-.41-.35-1.11-.13-1.05l1.89.52c.68-1.65-1.27-3.64-3.45-4.7l19.9,3c.61.67,1.84,2.69,1.67,2.78-1.31-.04-2.2-.17-2.15.21l.32,2.31c5.3,5.51,9.79,11.37,12.63,18.54,6.2,12.16,9.27,24.8,11.24,38.24l1.77,12.07c.62-3.5.52-6.47.49-9.89.15-1.03.46-2.98.31-1.15l1.32,8.93.69,6.69.42-1.14.33-2.4,1.37,8.77,1.95-.1c.43,1.25.71.9.79-.09l2.05-7.39c.35-1.1.6-1.13.55,0l.62,14.04c.39.17.66-.04,1.38-1.51.04-.3.21-.46.29-.17l.42,1.48.43,1.51c.08.28.87,0,1.13-.28l8.51-9.36,6.59-.51-6.61,13.52c-4.8,9.83-17.46,26.94-17.41,27.09l.62,2.06ZM719.19,479.61l-6.73,11.44-3.91,7.59c.69.03,1.71.01,1.62.33l-.47,1.79-.41,1.55c-.11.41.95.88,2.05,1.37l4.17-5.39c.73,5.92.25,11.77-1.34,17.52l-.4-7.74-1.18,2.43-.12-3c-.02-.47-1.46-1.03-1.81-.72-2.12,1.9.13,5.21-.73,8.31-2.68,9.6-5.54,17.99-11.02,26.26l1.11-5.33-3.27,2.81c-2.63,5.72-6.65,11.92-12.62,14.86l2.93-5.23,9.62-20.47c3.54-7.54,7.26-15.17,7.14-23.95l-2.81-2.9-1.13,1.08c-.15.14-.48.31-.53.12l-.31-1.2c5.57-4.98,9.77-10.1,14.2-15.92l10.81-16.81c-1.17,3.82-2.88,7.79-4.87,11.17Z"/>
    <path class="st0" d="M445.57,211.92c0-3.43-3.67-3.9-6.79-4.18l6.32-1.29c-4.64-3.15-9.41-2.75-14.98-3.46l6.51-1.35c.48-.1.91-1.2.6-1.53l-1.23-1.26-15.43.26c3.22-.7,6.37-1.04,10.03-2.32-20.32-.22-39.39,6.02-57.33,15.32l-15.14,7.84c3.76-4.29,8.4-6.43,13.09-9.13l9.6-5.53.78-1.65,8.24-5.59c-2.81.31-5.85.25-7.8,1.14l-16.01,7.34c12.54-8.75,26.37-14.64,40.91-19.34l18.71-6.05-9.13.34-8.29,1.89,6.21-2.92-6.63.79.5-2.37c.11-.54,1.75-.91,2.36-1.1l10.48-3.31,12.74-3.64-.46-.75-15.67,1.7c2.82-1.15,4.64-1.74,7.07-3.15l-18.23,3.5-8.03,1.5c-10.94,2.05-20.28,7.87-30.16,11.68l18.47-9.05-5.81.1c-27.76,11.27-51.48,28.56-71.1,51.23-.36-3.4,2.41-4.82,4.03-6.97,19.14-25.32,47.17-45.65,77.29-55.98-11.8.7-20.99,7.57-31.55,11.22,9.94-5.9,21.12-10.33,32.33-12.81l3.4.73c.56.12,1.23-1.31,1.65-2.03,11.88-2.83,23.77-4.11,35.65-4.78-1.25-.58-3.57-1.85-4.54-1.82l-11.18.35c-10.83.34-20.65,2.51-31.34,5.23,11.85-5.33,24.73-6.86,37.69-8.73l7.6-1.09c12.25-1.76,23.9,2.37,35.63,6.19-2.79-2.53-6.36-4.32-10.17-5.25l-19.58-4.74c-10.32-1.56-19.79-.37-30.05.41l21.83-2.68c-9.96-2.66-19.35,1.11-29.25,1.72-2.9.15-5.46-.55-8.52.29-20.62,5.7-39.11,14.8-56.54,27.22,7.04-7.12,15.94-11.23,24.5-16.29,5.76-3.4,11.25-6.3,17.5-8.69,2.88-1.1,5.81-2.08,8.52-4.22-44.48,12.47-84.11,46.28-107.8,85.98l-12.52,25.45c-7.26,14.76-16.22,46.7-13.75,62.2.32,1.99,2.04,4.88,2.92,6.46l-1.27,2.45c3.63-.79,2.76-3.5,3.26-5.78l3.3-14.81c-.34,9.25-1.65,21.05,2.5,27.98.79,1.32.98,1.86,2.59,1.93,2.78.12.4-7.2,3.36-13.82.1,6.58,1.08,12.61,4.68,10.8,1.99,1.79,5.23,3.49,7.71,3.27l3.58-2.45.97-4.32.63,4.71c.51.45,2.44-.24,3.33-.81,1.21-.78.19-2.99.31-3.94l1.18-9.46,1.22,4.04,3.21-14.85c1.39-6.41,3.12-12.73,6.22-18.51l-5.63,22.35,3.53-8.24,6.58-20.04c-.75-5.14,4.98-14.74,8.8-19.96l4.23-5.76,4.07-2.06-12.96,19.21c-1.62,2.41-1.98,4.64-2.85,7.47l-3.71,12.11c-.98,3.21-1.65,5.95-.88,9.17l-2.84,11.02.72,6.26c-1.52,1.72-2.69,3.92-2.59,5.1l2.2,2.01,1.26-.82s.17.63.25.83l.78,2.03,3.37-5.72c1.81-3.08,2.4-6.34,5.44-8.33l-4.25,6.78,4.83-3.04.16,4.2c2.86-.39,3.81-1.36,6.33-3.29l-1.3,5.63c3.66.51,6.09-1.58,8.65-3.87l11.9-10.66c6.17-5.52,11.96-10.24,19.22-14.29,14.36-8.02,28.46-15.55,44.33-20.23,6.06-1.79,12.36-2.73,17.98-5.58,1.7-.86,2.44-2.96,5.14-2.73,4.56.4,8.86.08,13.85-1.29-2.11-2.83-5.61-3.76-9.12-3.32l-16.02,2.02.44-.74,9.47-1.75,3.38-1.65,10.29-1.49c-2.47-2.58-4.63-3.83-7.66-4.49-2.22-1.58-4.67-1.62-8.08-1.78l7.71-1.41c-2.59-2.97-5.96-.03-7.89-3.23-9-.03-17.47,1.91-26.36,4.44-23.54,6.71-44.91,18.31-64.4,33.11,5.96-12.53,14.83-21.56,23.77-30.83l10.42-8.54c9.11-7.47,18.75-13.3,29.3-18.69,8.74-4.46,17.3-7.6,26.9-10.1l11.85-3.09-1.67-1.59,9.53-.93,6.72-.48v-1.88c-2.39.09-1.57-.92-.14-1.33Z"/>
    <path class="st0" d="M454.65,297.51c-.59.02-1.52.79-2.01,1.37l-3.51,4.15-7.35,11.76,7.1-17c.56-1.33.34-4.38.12-6.21l-1.76,3.04,1.26-7.2-2.64,4.64c-1.94,3.41-2.93,6.88-5.11,9.97l.43-4.06c-2.13,1.29-2.64,2.52-4.2,4.26l-3.67,4.11-4.29,5.87c-5.3,8.35-10.2,16.57-18.19,23.13l1.68-3.59c-2.56.45-3.91,2.2-5.93,3.86l-15.59,12.76-15.22,10.46,8.9-9.4,12.83-14.69c-.54-.75-.86-1.07-.89-1.39l-.19-2.01-20.13,15.64,23.66-22.96c3.44-3.34,7.29-7.08,6.73-12.14l-6.16,7.33-.37-3.04c-.04-.29-.92.45-1.17.59l-1.44.82,5.03-12.91c.79-2.04,1.24-4.86,1.56-7.41l-6.16,9.04-.44-4.68c-3.02,5.35-4.93,8.3-8.8,11.86l-10.61,9.77-14.11,12.05c-3.32,2.83-6.89,4.77-11.04,6.62l9.72-7.2,6.23-5.09,1.13-.79.52-1.72c1.03-.99,3.23-3.19,3.46-5.25-7.65,6.14-14.74,11.84-23.49,16.01l-18.25,8.72c-12.18,5.04-23.91,10.71-36.85,13.75l-18.82,2.97c-5.73.9-20.43.04-22.71-.94-1.92-.82-4.05-1.28-5.94-.61l4.77,2.58-9.08-2.1-.98,3.2c-.19.62,1.3,1.38,2.56,2.23l-2.82.5c-.4,2.14.66,5.14,2.67,5.89l6.42,2.39-4.8-.25c1.78,3.48,4.8,4.74,8.37,6.18-2.71-.14-4.41-.75-6.41.83l11.99,4.28c-1.16,1.42-2.23,4.39-1.32,5.62,2.56,3.47,5.83,3.23,9.86,4.89l-12.7.74-12.68-.12.87.81-3.19.32,4.57,5.68c3.27,1.17,7.23,1.34,11,1.42l-1.26.98c-3.1-.55-7.7-.39-10,1.77.06,2.66,3.11,3.6,4.77,4.96,2.61,2.12,4.96,4.37,8.59,4.79,8.57.99,16.89.53,25.57-.27,12.12-1.11,23.7-2.05,35.38-5.4,15.06-4.32,29.11-10.03,42.81-17.42l25.6-13.82c13.34-7.98,24.75-17.3,35.81-28.25,15.11-14.95,26.46-32.82,31.44-53.71.19-.79-.42-3.03-1.15-3Z"/>
    <path class="st0" d="M516.06,652.98c.76,1.52.89,1.75.82,1.41,1.47-.92,2.19-1.5,2.41-1.16l1.21,1.87c-4.71,8.31-21.12,13.55-31.77,15.19-21.45,3.3-52.78-5.19-60.64-26.22l2.95-3.9c-9.61.54-25.63-4.84-23.35-8.99.37-.67,1.7-1.15,2.62-1.02l7.67,1.09-7.07-2.52,4.91-.55-2.97-.93c-.66-.21-1.03-1.75-1.4-3.02,5.59.35,11.93,2.19,17.95,1.03l14.03-2.71,14.44-3.47c7.89-.58,14.63,2.61,21.63,5.85,4.56,2.1,10.74-7.36,20.55-5.7l16.36,2.78,4.85,1.59,7.63-.62c5.53-.45,10.29-1.8,15.31-4.66l5.43,2.76-3.61,4.11,7.3-.15c-2,3.51-4.44,5.17-7.69,6.98-4.97,2.76-10.55,6.01-16.49,5.72-3.8-.18-6.49.65-10.11,1l-26.49,2.56c-1.24.12-3.24.97-4.01,1.64l-2.01,1.72c-.79.68-3.72-.1-1.43-1.31l-11.65-.45c-8.86-4.16-17.7-6.08-27.14-3.09-1.12.36-3.01.44-4.52.53l9.4,5.52c9.3,4.03,19.73,5.68,29.86,6.3l17.27-1.91-4.98,2.11c5.51-.07,9.58-4.43,14.78-4.92l7.46-.7-4.53,4.62,7.97-1.95-7.39,5.56.48.51,3.95-2.51Z"/>
    <path class="st0" d="M552.43,484.17l-2.56-3.37.5-.76c.48-.73-3.63-2.4-2.31-6.55l1,2.57c-.24-4.26.11-8.1,1.84-11.96.53-1.18,2.19-1.92,3.17-2.66,2.02-1.52,4.13-3.59,6.49-4.05l2.97-.58c3.5-.68,7.39-.1,10.59,1.53l2.01,2.02v.61c0,.13.31.58.38.48l.65-.92c5.68,6.68,6.75,15.54,1.06,22.67-2.45,3.07-5.48,5.61-9.69,5.9-1.29.09-3,.59-4.31,1.06-4.26-.98-8.4-2.92-11.79-5.98Z"/>
    <path class="st0" d="M356.08,482c-3.3,1.1-5.54,2.32-8.94.97l12.64-5.84-16.7,5.49c-2.08.68-3.61.42-4.63-1.35-1.16-2.02-.77-3.2,2.08-4.99l-3.77-.15c1.42-1.17,2.84-2.09,4.4-2.83l6.73-3.16-8.62,1.13c-.37.05-1.79-1.53-1.51-1.79l1.42-1.33,26.35-9.97,17.38-1.62c9.33-.87,30.48,3,37.01,7.54l14.18,9.84c2.52,1.75,4.12,4.98,2.91,7.78l-7.39-1.73c1.3,1.96,2.73,4.33,2.46,6.44-.55,1.29-3.91.7-5.2.12-8.96-4.05-17.6-7.51-27.36-9.04-14.72-2.3-29.08-.29-43.45,4.48Z"/>
    <path class="st0" d="M442.81,580.53c-.19-1.44,3.77-3.03,4.65-2.44l-3.88-2.64,2.18-1.22c.32-.18-.03-1.02-.22-1.5-.22-.28-.92-1.16-.58-1.24.34-.07,1.2-.24,1.55-.23l1.84.05c.44.01.33-.68.35-2.02l10.57,1.54c8.99,1.31,10.05,8.98,21.61,7.93,3.91-.36,7.67-1.06,10.99-3.63,4.37-3.38,9.18-5.89,14.59-6.96.83.45,1.81,1.03,2.39.91l3.77-.75-5.9,7.15,6.41-3.14,2.7,2.43c-4.48,3.92-8.89,7.08-14.02,9.7-4.09,2.16-7.42,4.85-10.77,8.24-5.51,1.69-11.78,2.84-17.39,1.06l-8.34-2.64-16.69-5.83c-2.16-.75-5.4-1.71-5.81-4.77Z"/>
    <path class="st0" d="M547.88,486.74c1.39.21,2.4,1.09,3.47,1.93,1.05.86,2.16,1.69,3.51,1.75,3.31.02,5.94,1.22,8.45,2.07-.26.77-.87,1.86-.79,2.32.5,1.44.04,3.02-.45,4.57-.24.78-.75-.24-.75.62-.76-.22-2.16-.32-1.68.74-.02.88,1.3.42,1.19,1.68-.09,1.26-1.02,2.25-1.11,3.5.29.09.87.28,1.16.37.07.88-.98,2.26-.69,2.35.7,1.05,2.09.96,3.34,1.27-.09.4-.1.81-.18,1.16-.07.35-.2.64-.58.75-5.89-.91-11.65-2.61-16.85-5.17-2.61-1.27-5.1-2.73-7.4-4.43-2.32-1.71-4.39-3.53-6.43-5.86-.99-1.53,1.26-1.6,2.73-1.92-.52.08.32-.81-.2-.75.86-.88,2.71-1.93,3.85-1.48l-.66-.59c.06-.5.82-.91,1.37-1.51.21.19.42.38.69.07.27-.31.81-.92,1.08-1.22-.2-.18-.6-.54-.8-.73.2.18.4.37.67.06.27-.3.82-.91,1.1-1.21.65.04.71,1.18,1.38,1.2l.79-.94c-.13-.64-.97-.84-1.35-1.17.46-.13.73-.44,1.28-1.05.81.18.6,1.6,1.96,1.14l-.57-.48c1.68-1.25,1.59.78,2.45.92Z"/>
    <path class="st0" d="M583.64,458.81c-1.39-.21-2.4-1.09-3.47-1.93-1.05-.86-2.16-1.69-3.51-1.75-3.31-.02-5.94-1.22-8.45-2.07.26-.77.87-1.86.79-2.32-.5-1.44-.04-3.02.45-4.57.24-.78.75.24.75-.62.76.22,2.16.32,1.68-.74.02-.88-1.3-.42-1.19-1.68.09-1.26,1.02-2.25,1.11-3.5-.29-.09-.87-.28-1.16-.37-.07-.88.98-2.26.69-2.35-.7-1.05-2.09-.96-3.34-1.27.09-.4.1-.81.18-1.16.07-.35.2-.64.58-.75,5.89.91,11.65,2.61,16.85,5.17,2.61,1.27,5.1,2.73,7.4,4.43,2.32,1.71,4.39,3.53,6.43,5.86.99,1.53-1.26,1.6-2.73,1.92.52-.08-.32.81.2.75-.86.88-2.71,1.93-3.85,1.48l.66.59c-.06.5-.82.91-1.37,1.51-.21-.19-.42-.38-.69-.07-.27.31-.81.92-1.08,1.22.2.18.6.54.8.73-.2-.18-.4-.37-.67-.06-.27.3-.82.91-1.1,1.21-.65-.04-.71-1.18-1.38-1.2l-.79.94c.13.64.97.84,1.35,1.17-.46.14-.73.44-1.28,1.05-.81-.18-.6-1.6-1.96-1.14l.57.48c-1.68,1.25-1.59-.78-2.45-.92Z"/>
    <path class="st0" d="M576.37,492.6c.4-1.34,1.41-2.23,2.39-3.18.99-.93,1.97-1.91,2.22-3.24.47-3.28,2.03-5.72,3.21-8.09.73.36,1.73,1.12,2.19,1.1,1.5-.3,2.99.37,4.47,1.07.74.35-.34.71.51.83-.32.72-.61,2.09.5,1.76.87.14.6-1.23,1.83-.94,1.23.27,2.08,1.32,3.32,1.58.13-.27.39-.82.52-1.1.88.05,2.1,1.29,2.24,1,1.14-.55,1.24-1.94,1.72-3.14.38.14.79.21,1.13.33.34.12.61.28.67.68-1.71,5.7-4.18,11.18-7.44,15.98-1.62,2.41-3.41,4.67-5.4,6.72-2.01,2.07-4.1,3.87-6.69,5.57-1.65.77-1.42-1.47-1.53-2.97,0,.52-.76-.43-.77.1-.75-.97-1.54-2.94-.93-4.01l-.67.57c-.49-.12-.78-.94-1.31-1.57.22-.18.43-.37.17-.68-.27-.31-.8-.93-1.06-1.24-.21.17-.62.52-.83.7.21-.17.42-.35.15-.66-.26-.31-.79-.94-1.05-1.25.13-.64,1.26-.54,1.38-1.2l-.82-.91c-.65.05-.96.85-1.35,1.18-.07-.47-.34-.78-.86-1.41.29-.78,1.67-.37,1.4-1.79l-.55.5c-1-1.83.99-1.47,1.25-2.3Z"/>
    <path class="st0" d="M553.62,453.34c-.4,1.34-1.41,2.23-2.39,3.18-.99.93-1.97,1.91-2.22,3.24-.47,3.28-2.03,5.72-3.21,8.08-.73-.36-1.73-1.12-2.19-1.1-1.5.3-2.99-.37-4.47-1.07-.74-.35.34-.71-.51-.83.32-.72.61-2.09-.5-1.76-.87-.14-.6,1.23-1.83.94-1.23-.27-2.08-1.32-3.32-1.58-.13.27-.39.82-.52,1.1-.88-.05-2.1-1.29-2.24-1-1.14.55-1.24,1.94-1.72,3.14-.38-.14-.79-.21-1.13-.33-.34-.12-.61-.28-.67-.68,1.71-5.7,4.18-11.18,7.44-15.98,1.62-2.41,3.41-4.67,5.4-6.72,2.01-2.07,4.1-3.87,6.69-5.57,1.65-.77,1.42,1.47,1.53,2.97,0-.52.76.43.77-.1.75.97,1.54,2.94.93,4.01l.67-.57c.49.12.78.94,1.31,1.57-.22.18-.43.37-.17.68.27.31.8.93,1.06,1.24.21-.17.62-.52.83-.7-.21.17-.42.35-.15.66.26.31.79.94,1.05,1.25-.13.64-1.26.54-1.38,1.2l.82.91c.65-.05.96-.85,1.35-1.18.07.47.34.78.86,1.41-.29.78-1.67.37-1.4,1.79l.55-.5c1,1.83-.99,1.47-1.25,2.3Z"/>
  </g>
</svg>
